<svg width="17" height="16" viewBox="0 0 17 16" fill="none" xmlns="http://www.w3.org/2000/svg">
<g clip-path="url(#clip0_82_378)">
<path fill-rule="evenodd" clip-rule="evenodd" d="M2.69846 0.511147C2.87343 0.336436 3.08354 0.200905 3.31486 0.113537C3.54617 0.0261686 3.79341 -0.0110424 4.0402 0.00436978C4.28698 0.019782 4.52767 0.0874655 4.74632 0.202935C4.96497 0.318404 5.15658 0.479023 5.30846 0.674147L7.10346 2.98015C7.43246 3.40315 7.54846 3.95415 7.41846 4.47415L6.87146 6.66415C6.84318 6.77758 6.84471 6.89639 6.87589 7.00906C6.90708 7.12172 6.96687 7.22441 7.04946 7.30715L9.50646 9.76415C9.5893 9.8469 9.69215 9.90679 9.80501 9.93798C9.91787 9.96918 10.0369 9.97061 10.1505 9.94215L12.3395 9.39515C12.5961 9.33099 12.8639 9.326 13.1227 9.38057C13.3816 9.43514 13.6246 9.54784 13.8335 9.71015L16.1395 11.5041C16.9685 12.1491 17.0445 13.3741 16.3025 14.1151L15.2685 15.1491C14.5285 15.8891 13.4225 16.2141 12.3915 15.8511C9.75264 14.9227 7.35673 13.412 5.38146 11.4311C3.40075 9.45616 1.89007 7.06061 0.961459 4.42215C0.599459 3.39215 0.924459 2.28515 1.66446 1.54515L2.69846 0.511147Z" fill="#0F6DB3"/>
</g>
<defs>
<clipPath id="clip0_82_378">
<rect width="16" height="16" fill="white" transform="translate(0.813477)"/>
</clipPath>
</defs>
</svg>
