<svg width="101" height="100" viewBox="0 0 101 100" fill="none" xmlns="http://www.w3.org/2000/svg">
<path d="M50.5 6.25C33.248 6.25 19.25 18.8496 19.25 34.375C19.25 59.375 50.5 93.75 50.5 93.75C50.5 93.75 81.75 59.375 81.75 34.375C81.75 18.8496 67.752 6.25 50.5 6.25ZM50.5 50C48.0277 50 45.611 49.2669 43.5554 47.8934C41.4998 46.5199 39.8976 44.5676 38.9515 42.2835C38.0054 39.9995 37.7579 37.4861 38.2402 35.0614C38.7225 32.6366 39.913 30.4093 41.6612 28.6612C43.4093 26.913 45.6366 25.7225 48.0614 25.2402C50.4861 24.7579 52.9995 25.0054 55.2835 25.9515C57.5676 26.8976 59.5199 28.4998 60.8934 30.5554C62.2669 32.611 63 35.0277 63 37.5C62.9964 40.8141 61.6783 43.9914 59.3348 46.3348C56.9914 48.6783 53.8141 49.9964 50.5 50Z" fill="#4D73BF"/>
</svg>
