<svg width="100" height="100" viewBox="0 0 100 100" fill="none" xmlns="http://www.w3.org/2000/svg">
<path d="M90.5782 68.3908C89.8817 73.6839 87.2822 78.5424 83.2653 82.059C79.2484 85.5756 74.0887 87.5098 68.75 87.5002C37.7344 87.5002 12.5 62.2658 12.5 31.2502C12.4905 25.9115 14.4246 20.7518 17.9412 16.7349C21.4578 12.718 26.3163 10.1186 31.6094 9.42206C32.9479 9.25863 34.3034 9.53246 35.4734 10.2027C36.6435 10.8729 37.5654 11.9036 38.1016 13.1408L46.3516 31.5588V31.6057C46.7621 32.5527 46.9316 33.5867 46.8451 34.6153C46.7585 35.6439 46.4185 36.635 45.8555 37.5002C45.7852 37.6057 45.711 37.7033 45.6328 37.801L37.5 47.4416C40.4258 53.3869 46.6446 59.551 52.668 62.4846L62.1758 54.3947C62.2692 54.3162 62.367 54.2432 62.4688 54.176C63.3332 53.5994 64.3277 53.2475 65.3624 53.152C66.3971 53.0565 67.4392 53.2205 68.3946 53.6291L68.4454 53.6525L86.8477 61.8986C88.0871 62.4329 89.1203 63.354 89.7927 64.5243C90.4652 65.6945 90.7407 67.051 90.5782 68.3908Z" fill="#4D73BF"/>
</svg>
